<svg width="47" height="115" viewBox="0 0 47 115" fill="none" xmlns="http://www.w3.org/2000/svg">
<path d="M33.5601 0.120117V98.0401C33.5601 101.88 33.8801 104.76 34.5201 106.68C35.1601 108.6 36.3868 109.88 38.2001 110.52C40.1201 111.16 42.8934 111.587 46.5201 111.8V115C44.2801 114.787 41.3468 114.68 37.7201 114.68C34.0934 114.573 30.2001 114.52 26.0401 114.52C21.7734 114.52 17.5601 114.573 13.4001 114.68C9.2401 114.68 5.77343 114.787 3.0001 115V111.8C7.4801 111.587 10.8934 111.16 13.2401 110.52C15.5868 109.88 17.1334 108.6 17.8801 106.68C18.7334 104.76 19.1601 101.88 19.1601 98.0401V25.7201C19.1601 21.9868 18.6268 19.2668 17.5601 17.5601C16.4934 15.7468 14.5734 14.5735 11.8001 14.0401C9.13343 13.5068 5.4001 13.2401 0.600098 13.2401V9.88012C9.13343 8.60012 15.9068 7.10679 20.9201 5.40012C26.0401 3.58679 30.2534 1.82679 33.5601 0.120117Z" fill="#C89D66"/>
</svg>
