<svg width="43" height="93" viewBox="0 0 43 93" fill="none" xmlns="http://www.w3.org/2000/svg">
<path d="M1.48387 93V91.5807C6.30107 91.4086 9.99999 90.6774 12.5806 89.3871C15.1613 88.0108 16.4516 85.2581 16.4516 81.1291V22.2903C16.4516 18.2473 16.0215 15.2366 15.1613 13.2581C14.3011 11.2796 12.6667 9.94626 10.2581 9.25809C7.93548 8.56992 4.58064 8.22583 0.193542 8.22583V6.80648C6.90322 6.63443 12.4946 6.07529 16.9677 5.12905C21.4409 4.18282 25.3978 2.54841 28.8387 0.22583V81.2581C28.8387 85.1291 29.8279 87.7957 31.8064 89.2581C33.871 90.6344 37.4409 91.4086 42.5161 91.5807V93C40.7097 92.914 37.957 92.828 34.2581 92.742C30.6452 92.5699 26.9032 92.4839 23.0323 92.4839C18.7312 92.4839 14.6021 92.5699 10.6452 92.742C6.68817 92.828 3.6344 92.914 1.48387 93Z" fill="white"/>
</svg>
