<svg width="66" height="116" viewBox="0 0 66 116" fill="none" xmlns="http://www.w3.org/2000/svg">
<path d="M32.5599 0.47998C38.2132 0.47998 43.2799 1.49331 47.7599 3.51999C52.2399 5.43998 55.8132 8.31998 58.4799 12.16C61.1466 15.8933 62.4799 20.5867 62.4799 26.24C62.4799 31.8933 61.0399 37.5467 58.1599 43.2C55.3866 48.7467 51.5999 54.56 46.7999 60.64C41.9999 66.72 36.6666 73.28 30.7999 80.32C25.0399 87.36 19.1732 95.1467 13.1999 103.68H49.0399C52.4532 103.68 55.1199 102.667 57.0399 100.64C58.9599 98.5067 60.2399 94.56 60.8799 88.8H64.5599C64.4532 89.9733 64.3466 91.4133 64.2399 93.12C64.1332 94.8267 64.0799 96.4267 64.0799 97.92C64.0799 100.053 64.1332 102.773 64.2399 106.08C64.4532 109.28 64.7732 112.587 65.1999 116H30.7999C23.7599 116 18.0532 115.947 13.6799 115.84C9.30655 115.733 5.03988 115.787 0.879883 116V112.8C4.07988 109.173 7.70655 104.96 11.7599 100.16C15.8132 95.36 19.8665 90.1333 23.9199 84.48C28.0799 78.8267 31.8666 72.96 35.2799 66.88C38.7999 60.6933 41.6265 54.4 43.7599 48C45.8932 41.4933 46.9599 35.0933 46.9599 28.8C46.9599 23.2533 46.1066 18.6667 44.3999 15.04C42.7999 11.3067 40.5066 8.53332 37.5199 6.71998C34.6399 4.90665 31.3332 3.99998 27.5999 3.99998C23.8666 3.99998 20.2399 4.90665 16.7199 6.71998C13.1999 8.53332 10.7466 11.2533 9.35988 14.88C11.8132 15.3067 13.9466 16.2133 15.7599 17.6C17.6799 18.88 18.6399 20.8 18.6399 23.36C18.6399 25.8133 17.7866 27.84 16.0799 29.44C14.3732 30.9333 12.2932 31.68 9.83988 31.68C7.06655 31.68 4.93322 30.7733 3.43988 28.96C2.05322 27.1467 1.35988 25.12 1.35988 22.88C1.35988 21.1733 1.78655 19.2533 2.63988 17.12C3.59988 14.9867 5.03988 12.8533 6.95988 10.72C10.3732 6.98665 14.3199 4.37332 18.7999 2.87999C23.3865 1.27998 27.9732 0.47998 32.5599 0.47998Z" fill="#C89D66"/>
</svg>
