<svg width="60" height="95" viewBox="0 0 60 95" fill="none" xmlns="http://www.w3.org/2000/svg">
<path d="M0.0645142 94V92.5807C3.24731 89.1398 6.60215 85.3549 10.129 81.2258C13.7419 77.0968 17.2688 72.7527 20.7097 68.1936C24.1505 63.5484 27.2473 58.7742 30 53.871C32.8387 48.9678 35.0753 44.0215 36.7097 39.0323C38.3441 33.957 39.1613 29.0108 39.1613 24.1936C39.1613 19.6344 38.3871 15.8495 36.8387 12.8387C35.2903 9.82799 33.1398 7.59143 30.3871 6.12906C27.7204 4.58067 24.5376 3.80648 20.8387 3.80648C17.4839 3.80648 14.6882 4.36562 12.4516 5.4839C10.3011 6.60218 9.2258 8.02154 9.2258 9.74197C9.2258 10.9463 9.69892 12.1076 10.6452 13.2258C11.5914 14.3441 12.5376 15.5484 13.4839 16.8387C14.4301 18.1291 14.9032 19.6344 14.9032 21.3549C14.9032 23.1613 14.2581 24.5807 12.9677 25.6129C11.7634 26.5592 10.2151 27.0323 8.32258 27.0323C6 27.0323 4.15054 26.3011 2.77419 24.8387C1.39785 23.2904 0.709676 21.2688 0.709676 18.7742C0.709676 15.5054 1.87097 12.5377 4.19355 9.871C6.60215 7.11831 9.82796 4.92476 13.871 3.29035C17.914 1.65594 22.4301 0.838745 27.4194 0.838745C32.2366 0.838745 36.5376 1.65594 40.3226 3.29035C44.1935 4.92476 47.2473 7.33336 49.4839 10.5162C51.7204 13.6129 52.8387 17.3979 52.8387 21.871C52.8387 26.2581 51.7204 30.6882 49.4839 35.1613C47.2473 39.5484 44.1935 44.1936 40.3226 49.0968C36.4516 53.914 31.9355 59.1183 26.7742 64.7097C21.6989 70.2151 16.2366 76.3656 10.3871 83.1613V83.4194H40.1935C44.6667 83.4194 48.0645 83.0753 50.3871 82.3871C52.7097 81.6129 54.3871 80.2796 55.4193 78.3871C56.5376 76.4086 57.3978 73.5699 58 69.871H59.4194C58.8172 73.914 58.3871 77.957 58.129 82C57.957 86.043 57.871 90.2581 57.871 94.6452C55.3763 94.3011 52.8817 94.0861 50.3871 94C47.9785 94 45.5269 94 43.0323 94H0.0645142Z" fill="white"/>
</svg>
