<svg width="71" height="119" viewBox="0 0 71 119" fill="none" xmlns="http://www.w3.org/2000/svg">
<path d="M36.04 0.47998C44.4667 0.47998 51.2934 2.66665 56.52 7.03998C61.7467 11.3067 64.36 17.12 64.36 24.48C64.36 29.8133 62.8134 34.6133 59.72 38.88C56.7334 43.04 52.9467 46.56 48.36 49.44C43.88 52.2133 39.3467 54.24 34.76 55.52C40.84 55.7333 46.6 56.96 52.04 59.2C57.48 61.44 61.9067 64.6933 65.32 68.96C68.7334 73.2267 70.44 78.6667 70.44 85.28C70.44 90.5067 69.32 95.1467 67.08 99.2C64.9467 103.253 61.96 106.72 58.12 109.6C54.3867 112.373 49.96 114.507 44.84 116C39.8267 117.493 34.44 118.24 28.68 118.24C23.4534 118.24 19.08 117.6 15.56 116.32C12.1467 115.147 9.48004 113.92 7.56004 112.64C5.32004 111.147 3.50671 109.44 2.12004 107.52C0.733373 105.493 0.0400391 103.36 0.0400391 101.12C0.0400391 98.6667 0.840039 96.64 2.44004 95.04C4.04004 93.44 6.12004 92.64 8.68004 92.64C11.0267 92.64 13.0534 93.3867 14.76 94.88C16.4667 96.3733 17.32 98.5067 17.32 101.28C17.32 103.52 16.68 105.333 15.4 106.72C14.2267 108.107 12.6267 109.013 10.6 109.44C11.56 111.04 13.7467 112.48 17.16 113.76C20.68 114.933 24.4667 115.52 28.52 115.52C34.4934 115.52 39.4534 114.24 43.4 111.68C47.3467 109.013 50.28 105.44 52.2 100.96C54.2267 96.48 55.24 91.5733 55.24 86.24C55.24 77.3867 53 70.4533 48.52 65.44C44.04 60.4267 38.12 57.6 30.76 56.96C29.0534 57.6 27.72 58.1333 26.76 58.56C25.9067 58.88 25.0534 59.04 24.2 59.04C23.1334 59.04 22.28 58.7733 21.64 58.24C21.1067 57.7067 20.84 57.12 20.84 56.48C20.84 55.84 21.16 55.2533 21.8 54.72C22.44 54.1867 23.3467 53.92 24.52 53.92C25.48 53.92 26.44 54.0267 27.4 54.24C28.36 54.4533 29.3734 54.6667 30.44 54.88C37.0534 53.4933 41.7467 50.2933 44.52 45.28C47.4 40.16 48.84 34.3467 48.84 27.84C48.84 20.48 47.2934 14.72 44.2 10.56C41.2134 6.29332 36.7334 4.15998 30.76 4.15998C26.92 4.15998 23.08 5.06665 19.24 6.87998C15.5067 8.58665 12.84 11.2533 11.24 14.88C13.6934 15.3067 15.8267 16.2133 17.64 17.6C19.56 18.88 20.52 20.8 20.52 23.36C20.52 25.8133 19.6667 27.84 17.96 29.44C16.2534 30.9333 14.1734 31.68 11.72 31.68C8.94671 31.68 6.81337 30.7733 5.32004 28.96C3.93337 27.1467 3.24004 25.1733 3.24004 23.04C3.24004 21.2266 3.72004 19.2533 4.68004 17.12C5.64004 14.88 7.02671 12.7466 8.84004 10.72C12.04 7.19998 16.0934 4.63998 21 3.03998C25.9067 1.33331 30.92 0.47998 36.04 0.47998Z" fill="#C89D66"/>
</svg>
