<svg width="62" height="96" viewBox="0 0 62 96" fill="none" xmlns="http://www.w3.org/2000/svg">
<path d="M29.2903 95.8065C23.957 95.8065 19.1398 95.0323 14.8387 93.4839C10.5376 91.8495 7.13976 89.6559 4.64513 86.9033C2.15051 84.0645 0.903198 80.9248 0.903198 77.4839C0.903198 74.7312 1.67739 72.5377 3.22578 70.9033C4.77417 69.1828 6.79567 68.3226 9.29029 68.3226C11.2688 68.3226 12.8602 68.9248 14.0645 70.1291C15.2688 71.2473 15.8709 72.7097 15.8709 74.5162C15.8709 76.2366 15.4408 77.699 14.5806 78.9033C13.7204 80.0215 12.8172 81.1398 11.8709 82.2581C11.0107 83.2904 10.5806 84.4947 10.5806 85.871C10.5806 88.1076 11.957 90 14.7097 91.5484C17.5484 93.0108 21.0752 93.742 25.2903 93.742C32.4301 93.742 38.0215 91.6344 42.0645 87.4194C46.1935 83.2043 48.258 77.3549 48.258 69.871C48.258 63.4194 46.6236 58.1291 43.3548 54C40.086 49.785 35.5699 47.2904 29.8064 46.5162C28.258 46.8602 26.9247 47.1613 25.8064 47.4194C24.6881 47.6775 23.7419 47.8065 22.9677 47.8065C22.1075 47.8065 21.4193 47.6775 20.9032 47.4194C20.3871 47.0753 20.129 46.6452 20.129 46.1291C20.129 45.6129 20.4301 45.2258 21.0322 44.9678C21.6344 44.6237 22.4516 44.4516 23.4838 44.4516C24.258 44.4516 25.1613 44.5377 26.1935 44.7097C27.2258 44.7957 28.3871 44.9248 29.6774 45.0968C32.5161 44.0645 34.9677 42.4731 37.0322 40.3226C39.0967 38.1721 40.6881 35.5914 41.8064 32.5807C43.0107 29.5699 43.6129 26.3011 43.6129 22.7742C43.6129 16.8387 41.9785 12.1936 38.7096 8.83875C35.4408 5.4839 30.9247 3.80648 25.1613 3.80648C21.6344 3.80648 18.7527 4.40863 16.5161 5.61293C14.2795 6.73121 13.1613 8.10756 13.1613 9.74197C13.1613 10.9463 13.6344 12.1076 14.5806 13.2258C15.5269 14.3441 16.4731 15.5484 17.4193 16.8387C18.3656 18.1291 18.8387 19.5914 18.8387 21.2258C18.8387 22.9463 18.2365 24.3226 17.0322 25.3549C15.8279 26.3871 14.2365 26.9033 12.258 26.9033C9.93546 26.9033 8.08599 26.1721 6.70965 24.7097C5.33331 23.1613 4.64513 21.1398 4.64513 18.6452C4.64513 15.3764 5.84943 12.4086 8.25804 9.74197C10.6666 7.0753 13.9355 4.92476 18.0645 3.29035C22.1935 1.65594 26.7527 0.838745 31.7419 0.838745C39.3118 0.838745 45.4193 2.6882 50.0645 6.38712C54.7957 10 57.1613 14.6882 57.1613 20.4516C57.0752 26.043 54.7527 31.1183 50.1935 35.6775C45.7204 40.1506 39.4408 43.4624 31.3548 45.6129C37.7204 45.957 43.1828 47.2473 47.7419 49.4839C52.3011 51.6344 55.7849 54.5162 58.1935 58.1291C60.6881 61.6559 61.9355 65.6559 61.9355 70.1291C61.9355 75.2043 60.5161 79.6774 57.6774 83.5484C54.8387 87.3334 50.9677 90.3441 46.0645 92.5807C41.1613 94.7312 35.5699 95.8065 29.2903 95.8065Z" fill="white"/>
</svg>
