<svg width="80" height="116" viewBox="0 0 80 116" fill="none" xmlns="http://www.w3.org/2000/svg">
<path d="M56.5602 0.47998L56.2402 5.59998L4.24021 83.36L8.72021 75.68H79.2802V86.4H0.720215V83.2L56.5602 0.47998ZM59.1202 0.47998V99.04C59.1202 102.88 59.4402 105.76 60.0802 107.68C60.7202 109.6 61.9469 110.88 63.7602 111.52C65.6802 112.16 68.4535 112.587 72.0802 112.8V116C69.8402 115.787 66.9069 115.68 63.2802 115.68C59.6536 115.573 55.7602 115.52 51.6002 115.52C47.3335 115.52 43.1202 115.573 38.9602 115.68C34.8002 115.68 31.3335 115.787 28.5602 116V112.8C33.0402 112.587 36.4535 112.16 38.8002 111.52C41.1469 110.88 42.6935 109.6 43.4402 107.68C44.2936 105.76 44.7202 102.88 44.7202 99.04V21.44L56.5602 0.47998H59.1202Z" fill="#C89D66"/>
</svg>
