<svg width="68" height="93" viewBox="0 0 68 93" fill="none" xmlns="http://www.w3.org/2000/svg">
<path d="M0.0645142 69.5162V67.9678L48.7097 0.0968018L48.8387 2.54841L5.6129 62.8065L6.38709 60.3549H67.2903V69.5162H0.0645142ZM23.6774 93V91.5807C27.7204 91.3226 30.7742 90.9355 32.8387 90.4194C34.9032 89.8172 36.2796 88.785 36.9677 87.3226C37.6559 85.8602 38 83.6667 38 80.742V16.871L48.7097 0.0968018H50.2581V80.742C50.2581 83.6667 50.5161 85.8602 51.0323 87.3226C51.6344 88.785 52.7527 89.8172 54.3871 90.4194C56.0215 90.9355 58.4301 91.3226 61.6129 91.5807V93C59.7204 92.828 57.1828 92.742 54 92.742C50.8172 92.6559 47.4624 92.6129 43.9355 92.6129C40.1505 92.6129 36.4086 92.6559 32.7097 92.742C29.0968 92.742 26.086 92.828 23.6774 93Z" fill="white"/>
</svg>
