<svg width="67" height="125" viewBox="0 0 67 125" fill="none" xmlns="http://www.w3.org/2000/svg">
<path d="M59.8802 0.719971C59.7735 1.8933 59.6669 3.38663 59.5602 5.19997C59.4535 6.90663 59.4002 8.39997 59.4002 9.67997C59.4002 11.28 59.4535 13.04 59.5602 14.96C59.7735 16.88 60.0935 18.9066 60.5202 21.04H11.0802L9.64019 59.44C12.9469 57.3066 16.4135 55.8133 20.0402 54.96C23.7735 54 27.6135 53.52 31.5602 53.52C37.4269 53.52 43.0269 54.7466 48.3602 57.2C53.8002 59.5466 58.2269 63.1733 61.6402 68.08C65.1602 72.9866 66.9202 79.2266 66.9202 86.8C66.9202 94.9066 65.1069 101.787 61.4802 107.44C57.9602 112.987 53.2135 117.2 47.2402 120.08C41.2669 122.853 34.5469 124.24 27.0802 124.24C23.2402 124.24 19.8269 123.76 16.8402 122.8C13.9602 121.84 11.4535 120.72 9.3202 119.44C6.22686 117.627 3.93353 115.6 2.4402 113.36C0.946862 111.12 0.200195 109.04 0.200195 107.12C0.200195 104.667 1.0002 102.64 2.6002 101.04C4.2002 99.44 6.22686 98.64 8.68019 98.64C11.1335 98.64 13.2135 99.3866 14.9202 100.88C16.6269 102.373 17.4802 104.507 17.4802 107.28C17.4802 109.52 16.8402 111.333 15.5602 112.72C14.3869 114.107 12.7869 115.013 10.7602 115.44C11.6135 117.04 13.6402 118.48 16.8402 119.76C20.0402 120.933 23.2935 121.52 26.6002 121.52C30.1202 121.52 33.3735 120.933 36.3602 119.76C39.4535 118.587 42.1202 116.667 44.3602 114C46.6002 111.227 48.3069 107.653 49.4802 103.28C50.7602 98.8 51.4002 93.36 51.4002 86.96C51.4002 79.7066 50.3335 73.8933 48.2002 69.52C46.1735 65.04 43.4535 61.7866 40.0402 59.76C36.6269 57.7333 32.9469 56.72 29.0002 56.72C26.6535 56.72 23.5602 57.2 19.7202 58.16C15.8802 59.0133 12.2535 60.6666 8.8402 63.12L6.2802 62L8.3602 8.07997C10.4935 8.50664 12.8935 8.71997 15.5602 8.71997H45.3202C49.0535 8.71997 51.8269 8.1333 53.6402 6.95997C55.4535 5.78664 56.6269 3.70664 57.1602 0.719971H59.8802Z" fill="#C89D66"/>
</svg>
