<svg width="59" height="104" viewBox="0 0 59 104" fill="none" xmlns="http://www.w3.org/2000/svg">
<path d="M26.5806 103.807C21.5054 103.807 17.0323 103.075 13.1613 101.613C9.37635 100.151 6.36559 98.1291 4.12904 95.5484C1.9785 92.8818 0.903229 89.828 0.903229 86.3872C0.903229 83.7205 1.5914 81.656 2.96775 80.1936C4.34409 78.6452 6.27957 77.871 8.7742 77.871C10.7527 77.871 12.3011 78.3441 13.4194 79.2904C14.6237 80.2366 15.2258 81.613 15.2258 83.4194C15.2258 85.1398 14.7527 86.6882 13.8065 88.0646C12.9462 89.4409 12.043 90.7312 11.0968 91.9355C10.1505 93.0538 9.67742 94.2581 9.67742 95.5484C9.67742 97.2689 10.8817 98.7312 13.2903 99.9355C15.785 101.054 18.9247 101.613 22.7097 101.613C30.0215 101.613 35.6559 99.2474 39.6129 94.5162C43.5699 89.785 45.5484 83.0323 45.5484 74.2581C45.5484 65.914 43.7419 59.5484 40.129 55.1613C36.6022 50.6882 31.4409 48.4517 24.6452 48.4517C22.1505 48.4517 19.6989 48.7527 17.2903 49.3549C14.8817 49.871 12.6882 50.6022 10.7097 51.5484L11.0968 50.1291C13.5914 48.8388 16.3441 47.8495 19.3548 47.1613C22.4516 46.4732 25.6344 46.1291 28.9032 46.1291C35.0108 46.1291 40.3011 47.3334 44.7742 49.742C49.3333 52.0646 52.8172 55.3334 55.2258 59.5484C57.7204 63.6775 58.9677 68.6237 58.9677 74.3872C58.9677 80.2366 57.6344 85.3979 54.9677 89.871C52.3011 94.2581 48.5161 97.699 43.6129 100.194C38.7957 102.602 33.1183 103.807 26.5806 103.807ZM8 56.3226C6.88172 56.3226 6.32258 55.8065 6.32258 54.7742C6.32258 53.914 6.75269 53.0968 7.61291 52.3226C8.55914 51.4624 9.84946 50.6882 11.4839 50.0001L11.6129 50.6452C11.5269 52.3656 11.1398 53.742 10.4516 54.7742C9.84947 55.8065 9.03226 56.3226 8 56.3226ZM10.1936 51.0323V10.6452H36.2581C40.8172 10.6452 44.043 9.91403 45.9355 8.45167C47.828 6.90328 48.9462 4.1506 49.2903 0.193604H50.8387C50.7527 5.61296 50.7527 10.0001 50.8387 13.3549C51.0108 16.6237 51.1828 19.4624 51.3548 21.871C50.6667 21.613 49.2473 21.4409 47.0968 21.3549C45.0323 21.2689 42.8817 21.2259 40.6452 21.2259H11.4839V50.6452L10.1936 51.0323Z" fill="white"/>
</svg>
