<svg width="73" height="119" viewBox="0 0 73 119" fill="none" xmlns="http://www.w3.org/2000/svg">
<path d="M43.0001 0.47998C44.9201 0.47998 46.7868 0.639982 48.6001 0.959984C50.4135 1.17332 52.1201 1.54666 53.7201 2.07999C55.4268 2.50666 56.9201 3.09332 58.2001 3.83999C60.3335 4.90665 62.3601 6.45332 64.2801 8.47998C66.3068 10.5066 67.3201 12.9066 67.3201 15.68C67.3201 18.0267 66.4668 20.0533 64.7601 21.76C63.0534 23.4667 60.9735 24.32 58.5201 24.32C56.1735 24.32 54.1468 23.5733 52.4401 22.08C50.7335 20.48 49.8801 18.5066 49.8801 16.16C49.8801 14.24 50.4668 12.48 51.6401 10.88C52.8134 9.27998 54.4135 8.05332 56.4401 7.19999C55.1601 5.70665 53.0801 4.69332 50.2001 4.15998C47.4268 3.51998 44.9735 3.19998 42.8401 3.19998C39.3201 3.19998 35.9068 4.10665 32.6001 5.91999C29.4001 7.62665 26.5201 10.72 23.9601 15.2C21.4001 19.5733 19.3735 25.6 17.8801 33.28C16.3868 40.96 15.6401 50.72 15.6401 62.56C15.6401 73.3333 16.2268 82.1333 17.4001 88.96C18.6801 95.7867 20.3334 101.12 22.3601 104.96C24.4934 108.693 26.8401 111.307 29.4001 112.8C32.0668 114.293 34.7334 115.04 37.4001 115.04C41.0268 115.04 44.3335 113.92 47.3201 111.68C50.3068 109.44 52.7068 105.76 54.5201 100.64C56.3335 95.52 57.2401 88.7467 57.2401 80.32C57.2401 68.6933 55.5335 60.32 52.1201 55.2C48.8134 50.08 44.5468 47.52 39.3201 47.52C37.4001 47.52 35.2668 47.9467 32.9201 48.8C30.5735 49.6533 28.2268 51.2 25.8801 53.44C23.6401 55.68 21.5601 58.88 19.6401 63.04C17.8268 67.2 16.4935 72.64 15.6401 79.36L13.7201 78.72C14.4668 70.1867 16.1735 63.4133 18.8401 58.4C21.6135 53.3867 25.0268 49.8133 29.0801 47.68C33.1335 45.44 37.4535 44.32 42.0401 44.32C47.3734 44.32 52.3868 45.6533 57.0801 48.32C61.7734 50.88 65.5601 54.8267 68.4401 60.16C71.3201 65.3867 72.7601 72 72.7601 80C72.7601 88.4267 71.1068 95.4667 67.8001 101.12C64.6001 106.773 60.2801 111.04 54.8401 113.92C49.4001 116.8 43.3735 118.24 36.7601 118.24C25.0268 118.24 15.9601 113.707 9.56012 104.64C3.26678 95.5733 0.120117 82.4 0.120117 65.12C0.120117 51.7867 1.93345 40.32 5.56012 30.72C9.18678 21.0133 14.2001 13.5467 20.6001 8.31998C27.1068 3.09331 34.5735 0.47998 43.0001 0.47998Z" fill="#C89D66"/>
</svg>
