<svg width="63" height="96" viewBox="0 0 63 96" fill="none" xmlns="http://www.w3.org/2000/svg">
<path d="M31.5161 95.8065C21.3656 95.8065 13.5806 92.1506 8.16129 84.8387C2.74193 77.4409 0.0322571 66.8602 0.0322571 53.0968C0.0322571 42.6022 1.53763 33.4409 4.54839 25.6129C7.55914 17.785 11.7742 11.7205 17.1935 7.41938C22.6989 3.03229 29.1075 0.838745 36.4194 0.838745C40.5484 0.838745 44.2903 1.52692 47.6452 2.90326C51.086 4.19358 53.7957 6.00003 55.7742 8.32262C57.7527 10.6452 58.7419 13.2258 58.7419 16.0645C58.7419 18.3871 58.0107 20.3226 56.5484 21.871C55.172 23.3334 53.3656 24.0645 51.129 24.0645C49.3226 24.0645 47.8602 23.5914 46.7419 22.6452C45.6237 21.6129 45.0645 20.2366 45.0645 18.5162C45.0645 16.9678 45.4086 15.6344 46.0968 14.5162C46.7849 13.3119 47.4731 12.1936 48.1613 11.1613C48.8495 10.1291 49.1935 9.09681 49.1935 8.06455C49.1935 6.43014 48.1613 5.0968 46.0968 4.06454C44.1183 3.03229 41.5376 2.51616 38.3548 2.51616C30.2688 2.51616 24.1183 6.60218 19.9032 14.7742C15.6882 22.9463 13.5806 35.1183 13.5806 51.2904C13.5806 65.4839 15.129 76.2366 18.2258 83.5484C21.3226 90.7742 25.9247 94.3871 32.0323 94.3871C37.2796 94.3871 41.3656 91.8495 44.2903 86.7742C47.2151 81.6129 48.6774 74.6452 48.6774 65.871C48.6774 57.1828 47.2151 50.6022 44.2903 46.1291C41.4516 41.5699 37.4086 39.2904 32.1613 39.2904C27.5161 39.2904 23.5591 40.7527 20.2903 43.6775C17.1075 46.6022 14.4839 50.9463 12.4194 56.7097L12.1613 55.4194C14.1398 49.2258 17.1075 44.4947 21.0645 41.2258C25.0215 37.871 30.0968 36.1936 36.2903 36.1936C41.3656 36.1936 45.8387 37.3979 49.7097 39.8065C53.5806 42.2151 56.5914 45.6129 58.7419 50C60.9785 54.3011 62.0968 59.2904 62.0968 64.9678C62.0968 71.1613 60.8065 76.5807 58.2258 81.2258C55.7312 85.871 52.1613 89.4839 47.5161 92.0645C42.957 94.5592 37.6237 95.8065 31.5161 95.8065Z" fill="white"/>
</svg>
