<svg width="42" height="33" viewBox="0 0 42 33" fill="none" xmlns="http://www.w3.org/2000/svg">
<path d="M22.8262 29.4148C24.7142 27.7843 26.8383 25.7246 29.1983 23.2358C31.5584 20.747 33.189 18.3226 34.0901 15.9625C31.1722 15.9625 28.8979 15.2331 27.2674 13.7741C25.6797 12.3152 24.8859 10.4057 24.8859 8.04563C24.8859 5.85722 25.7011 3.96918 27.3317 2.38151C28.9623 0.793837 31.0005 0 33.4464 0C35.7206 0 37.716 0.965481 39.4324 2.89643C41.1488 4.82738 42.007 7.42344 42.007 10.6846C42.007 14.7611 40.2047 18.8161 36.6003 22.8496C33.0388 26.9261 29.2412 30.1229 25.2077 32.44L22.8262 29.4148Z" fill="#C89D66"/>
<path d="M-0.0078125 29.4148C1.88023 27.7843 4.00428 25.7246 6.36433 23.2358C8.72438 20.747 10.355 18.3226 11.2561 15.9625C8.33819 15.9625 6.06396 15.2331 4.43338 13.7741C2.84571 12.3152 2.05187 10.4057 2.05187 8.04563C2.05187 5.85722 2.86716 3.96918 4.49774 2.38151C6.12832 0.793837 8.16655 0 10.6124 0C12.8867 0 14.882 0.965481 16.5984 2.89643C18.3148 4.82738 19.173 7.42344 19.173 10.6846C19.173 14.7611 17.3708 18.8161 13.7663 22.8496C10.2048 26.9261 6.40724 30.1229 2.37369 32.44L-0.0078125 29.4148Z" fill="#C89D66"/>
</svg>
