<svg width="265" height="26" viewBox="0 0 265 26" fill="none" xmlns="http://www.w3.org/2000/svg">
<path d="M247.053 24.8204V0.173584H253.822V18.919H265V24.8204H247.053Z" fill="#C89D66"/>
<path d="M240.434 18.919V24.8204H222.869V0.173584H240.121V6.07493H229.638V9.54631H238.594V15.0311H229.638V18.919H240.434Z" fill="#C89D66"/>
<path d="M204.392 24.9939C202.795 24.9939 201.268 24.7162 199.81 24.1608C198.375 23.5822 197.102 22.7491 195.991 21.6614C194.88 20.5506 194.001 19.2199 193.353 17.6693C192.728 16.0956 192.416 14.3021 192.416 12.2887C192.416 10.553 192.74 8.94459 193.388 7.46347C194.036 5.98235 194.927 4.68636 196.061 3.57552C197.218 2.44154 198.56 1.56212 200.087 0.937273C201.615 0.312424 203.269 0 205.051 0C207.273 0 209.287 0.485993 211.092 1.45798C212.897 2.40682 214.239 3.71438 215.118 5.38064L210.085 9.23387C209.599 8.26188 208.87 7.48661 207.898 6.90805C206.926 6.30634 205.896 6.00549 204.808 6.00549C203.998 6.00549 203.258 6.16749 202.587 6.49148C201.916 6.81548 201.326 7.26676 200.816 7.84532C200.33 8.42388 199.949 9.11816 199.671 9.92815C199.416 10.715 199.289 11.5828 199.289 12.5317C199.289 13.5037 199.428 14.3831 199.706 15.1699C199.983 15.9568 200.365 16.6395 200.851 17.218C201.36 17.7735 201.962 18.2132 202.656 18.5372C203.35 18.838 204.126 18.9884 204.982 18.9884C206.07 18.9884 207.111 18.7223 208.106 18.19C209.101 17.6346 210.004 16.8593 210.814 15.8642V22.4598C208.963 24.1492 206.822 24.9939 204.392 24.9939ZM210.467 16.5585H205.919V11.6986H216.056V24.8204H210.467V16.5585Z" fill="#C89D66"/>
<path d="M174.828 25.0286C172.953 25.0286 171.252 24.6815 169.725 23.9872C168.198 23.2698 166.878 22.3209 165.768 21.1407C164.68 19.9373 163.835 18.595 163.234 17.1139C162.655 15.6096 162.366 14.059 162.366 12.4622C162.366 10.8191 162.678 9.25697 163.303 7.77585C163.928 6.29472 164.796 4.9756 165.906 3.81847C167.04 2.6382 168.371 1.7125 169.899 1.04137C171.449 0.370234 173.139 0.034668 174.967 0.034668C176.841 0.034668 178.542 0.393377 180.07 1.1108C181.597 1.80507 182.905 2.75392 183.992 3.95733C185.08 5.16074 185.913 6.51458 186.492 8.01884C187.093 9.49997 187.394 11.0274 187.394 12.6011C187.394 14.221 187.082 15.7716 186.457 17.2527C185.855 18.7338 184.987 20.0645 183.853 21.2448C182.743 22.4019 181.424 23.3276 179.896 24.0219C178.369 24.693 176.679 25.0286 174.828 25.0286ZM169.239 12.5316C169.239 13.3648 169.355 14.1748 169.586 14.9616C169.818 15.7253 170.165 16.4196 170.628 17.0444C171.09 17.6461 171.669 18.1321 172.363 18.5024C173.081 18.8495 173.925 19.0231 174.897 19.0231C175.869 19.0231 176.714 18.838 177.431 18.4677C178.149 18.0974 178.727 17.5999 179.167 16.975C179.63 16.327 179.966 15.6212 180.174 14.8575C180.405 14.0706 180.521 13.2722 180.521 12.4622C180.521 11.6291 180.405 10.8307 180.174 10.067C179.942 9.30325 179.595 8.62055 179.132 8.01884C178.67 7.39399 178.079 6.908 177.362 6.56086C176.645 6.21373 175.811 6.04016 174.863 6.04016C173.891 6.04016 173.046 6.2253 172.329 6.59558C171.634 6.96586 171.056 7.46342 170.593 8.08827C170.13 8.68998 169.783 9.38425 169.551 10.1711C169.343 10.9348 169.239 11.7216 169.239 12.5316Z" fill="#C89D66"/>
<path d="M140.993 24.8204V0.173584H157.898V6.07493H147.762V10.1712H156.024V15.6559H147.762V24.8204H140.993Z" fill="#C89D66"/>
<path d="M115.266 24.8204V11.8374L111.135 20.9672H107.524L103.393 11.8374V24.8204H96.6242V0.173584H104.018L109.329 11.768L114.675 0.173584H122.035V24.8204H115.266Z" fill="#C89D66"/>
<path d="M82.1353 24.8204V0.173584H88.9044V24.8204H82.1353Z" fill="#C89D66"/>
<path d="M53.8151 24.8204V0.173584H63.2919C66.0227 0.173584 68.3023 0.729005 70.1305 1.83985C71.9819 2.92755 73.3705 4.40867 74.2962 6.28321C75.245 8.13462 75.7195 10.1943 75.7195 12.4623C75.7195 14.9617 75.1988 17.1371 74.1573 18.9885C73.1391 20.8399 71.6927 22.2747 69.8181 23.293C67.9667 24.3112 65.7913 24.8204 63.2919 24.8204H53.8151ZM68.8461 12.4623C68.8461 11.1894 68.6263 10.0786 68.1866 9.12975C67.7469 8.15776 67.1104 7.40563 66.2773 6.87335C65.4442 6.34107 64.4491 6.07493 63.2919 6.07493H60.5843V18.919H63.2919C64.4722 18.919 65.4673 18.6413 66.2773 18.0859C67.1104 17.5305 67.7469 16.7668 68.1866 15.7948C68.6263 14.7997 68.8461 13.6888 68.8461 12.4623Z" fill="#C89D66"/>
<path d="M32.883 0.173584H40.4506L48.2959 24.8204H41.4226L39.9299 19.9952H33.369L31.911 24.8204H25.0029L32.883 0.173584ZM38.8537 15.4824L36.6668 6.80392L34.3757 15.4824H38.8537Z" fill="#C89D66"/>
<path d="M7.15104 0.173584L11.9763 17.0098L16.7321 0.173584H23.8484L15.3435 24.8204H8.60902L0 0.173584H7.15104Z" fill="#C89D66"/>
</svg>
