<svg width="104" height="10" viewBox="0 0 104 10" fill="none" xmlns="http://www.w3.org/2000/svg">
<path d="M96.9567 9.74082V0.0681152H99.6133V7.42482H104V9.74082H96.9567Z" fill="#C89D66"/>
<path d="M94.359 7.42482V9.74082H87.4655V0.0681152H94.2363V2.38412H90.122V3.74647H93.6369V5.89899H90.122V7.42482H94.359Z" fill="#C89D66"/>
<path d="M80.2142 9.80894C79.5875 9.80894 78.988 9.69995 78.4158 9.48198C77.8527 9.25492 77.3532 8.92795 76.9173 8.50108C76.4813 8.06513 76.1362 7.54289 75.8819 6.93438C75.6366 6.31678 75.514 5.6129 75.514 4.82273C75.514 4.14155 75.6412 3.51033 75.8955 2.92906C76.1498 2.34779 76.4995 1.83918 76.9445 1.40322C77.3986 0.958188 77.9254 0.613059 78.5248 0.367835C79.1243 0.122612 79.7737 0 80.473 0C81.3449 0 82.1351 0.19073 82.8435 0.572188C83.5519 0.944565 84.0787 1.45772 84.4238 2.11165L82.4484 3.62386C82.2577 3.2424 81.9716 2.93814 81.5901 2.71108C81.2087 2.47494 80.8045 2.35687 80.3776 2.35687C80.0598 2.35687 79.7691 2.42045 79.5057 2.5476C79.2423 2.67475 79.0107 2.85186 78.8109 3.07892C78.6202 3.30598 78.4703 3.57845 78.3614 3.89633C78.2615 4.20513 78.2115 4.54572 78.2115 4.9181C78.2115 5.29955 78.266 5.64468 78.375 5.95348C78.484 6.26228 78.6338 6.53021 78.8246 6.75727C79.0244 6.97525 79.2605 7.14781 79.533 7.27497C79.8054 7.39304 80.1097 7.45207 80.4458 7.45207C80.8726 7.45207 81.2813 7.34762 81.6719 7.13873C82.0624 6.92075 82.4166 6.6165 82.7345 6.22595V8.81442C82.0079 9.47744 81.1678 9.80894 80.2142 9.80894ZM82.5983 6.49842H80.8136V4.59113H84.7917V9.74083H82.5983V6.49842Z" fill="#C89D66"/>
<path d="M68.6117 9.82261C67.876 9.82261 67.2084 9.68638 66.609 9.41391C66.0096 9.13236 65.4919 8.75998 65.0559 8.29678C64.6291 7.8245 64.2976 7.29772 64.0614 6.71645C63.8344 6.1261 63.7208 5.51758 63.7208 4.8909C63.7208 4.24605 63.8434 3.63299 64.0887 3.05172C64.3339 2.47045 64.6745 1.95275 65.1104 1.49864C65.5555 1.03544 66.0777 0.672143 66.6771 0.408754C67.2856 0.145366 67.9487 0.0136719 68.6662 0.0136719C69.4018 0.0136719 70.0694 0.154448 70.6688 0.436001C71.2683 0.708472 71.7814 1.08085 72.2083 1.55313C72.6352 2.02541 72.9621 2.55673 73.1892 3.14708C73.4253 3.72836 73.5434 4.32779 73.5434 4.94539C73.5434 5.58116 73.4208 6.18967 73.1756 6.77094C72.9394 7.35221 72.5988 7.87445 72.1538 8.33765C71.7178 8.79177 71.2001 9.15506 70.6007 9.42753C70.0013 9.69092 69.3383 9.82261 68.6117 9.82261ZM66.4183 4.91814C66.4183 5.24511 66.4637 5.56299 66.5545 5.87179C66.6453 6.17151 66.7816 6.44398 66.9632 6.6892C67.1449 6.92534 67.3719 7.11607 67.6444 7.26139C67.926 7.39763 68.2575 7.46574 68.6389 7.46574C69.0204 7.46574 69.3519 7.39309 69.6334 7.24777C69.915 7.10245 70.142 6.90718 70.3146 6.66196C70.4963 6.40765 70.628 6.13064 70.7097 5.83092C70.8005 5.52212 70.8459 5.20878 70.8459 4.8909C70.8459 4.56393 70.8005 4.25059 70.7097 3.95087C70.6189 3.65115 70.4826 3.38323 70.301 3.14708C70.1193 2.90186 69.8877 2.71113 69.6062 2.5749C69.3246 2.43866 68.9977 2.37054 68.6253 2.37054C68.2438 2.37054 67.9123 2.4432 67.6308 2.58852C67.3583 2.73384 67.1312 2.92911 66.9496 3.17433C66.768 3.41047 66.6317 3.68294 66.5409 3.99174C66.4592 4.29146 66.4183 4.60026 66.4183 4.91814Z" fill="#C89D66"/>
<path d="M55.333 9.74082V0.0681152H61.9677V2.38412H57.9896V3.99169H61.232V6.14421H57.9896V9.74082H55.333Z" fill="#C89D66"/>
<path d="M45.2362 9.74082V4.64562L43.615 8.22861H42.1982L40.577 4.64562V9.74082H37.9204V0.0681152H40.8222L42.9066 4.61837L45.0046 0.0681152H47.8928V9.74082H45.2362Z" fill="#C89D66"/>
<path d="M32.2343 9.74082V0.0681152H34.8908V9.74082H32.2343Z" fill="#C89D66"/>
<path d="M21.1199 9.74082V0.0681152H24.8391C25.9108 0.0681152 26.8054 0.286092 27.5229 0.722045C28.2495 1.14892 28.7945 1.73019 29.1578 2.46586C29.5301 3.19244 29.7163 4.00077 29.7163 4.89084C29.7163 5.87174 29.512 6.72548 29.1033 7.45207C28.7036 8.17866 28.136 8.74176 27.4003 9.14139C26.6737 9.54101 25.82 9.74082 24.8391 9.74082H21.1199ZM27.0189 4.89084C27.0189 4.39132 26.9326 3.95536 26.76 3.58299C26.5874 3.20153 26.3377 2.90635 26.0107 2.69746C25.6838 2.48856 25.2932 2.38412 24.8391 2.38412H23.7765V7.42482H24.8391C25.3023 7.42482 25.6928 7.31583 26.0107 7.09786C26.3377 6.87988 26.5874 6.58016 26.76 6.1987C26.9326 5.80816 27.0189 5.37221 27.0189 4.89084Z" fill="#C89D66"/>
<path d="M12.9049 0.0681152H15.8748L18.9538 9.74082H16.2563L15.6705 7.84715H13.0956L12.5235 9.74082H9.81238L12.9049 0.0681152ZM15.2482 6.07609L14.3899 2.67021L13.4907 6.07609H15.2482Z" fill="#C89D66"/>
<path d="M2.80645 0.0681152L4.70012 6.67553L6.56654 0.0681152H9.35937L6.0216 9.74082H3.37864L0 0.0681152H2.80645Z" fill="#C89D66"/>
</svg>
