<svg width="261" height="217" viewBox="0 0 261 217" fill="none" xmlns="http://www.w3.org/2000/svg">
<path d="M195.754 0C208.339 0 218.637 2.57426 226.645 7.72283C234.654 12.8714 241.233 19.4502 246.382 27.4591C252.674 36.6121 256.679 46.6231 258.395 57.4923C260.111 68.3615 260.969 77.2286 260.969 84.0933C260.969 112.124 253.818 137.581 239.517 160.464C225.215 183.346 202.905 201.938 172.585 216.24L164.863 200.794C182.597 193.357 197.756 181.63 210.342 165.612C223.499 149.595 230.078 133.291 230.078 116.701C230.078 109.836 229.22 103.83 227.504 98.681C218.351 106.118 207.767 109.836 195.754 109.836C180.88 109.836 168.009 104.974 157.14 95.2486C146.271 85.5235 140.836 72.08 140.836 54.9181C140.836 38.9003 146.271 25.7428 157.14 15.4457C168.009 5.14855 180.88 0 195.754 0Z" fill="white"/>
<path d="M54.9181 0C67.5035 0 77.8006 2.57426 85.8095 7.72283C93.8184 12.8714 100.397 19.4502 105.546 27.4591C111.838 36.6121 115.843 46.6231 117.559 57.4923C119.275 68.3615 120.133 77.2286 120.133 84.0933C120.133 112.124 112.983 137.581 98.6809 160.464C84.3794 183.346 62.0689 201.938 31.7495 216.24L24.0267 200.794C41.7606 193.357 56.9203 181.63 69.5057 165.612C82.6632 149.595 89.2419 133.291 89.2419 116.701C89.2419 109.836 88.3838 103.83 86.6676 98.681C77.5146 106.118 66.9314 109.836 54.9181 109.836C40.0444 109.836 27.173 104.974 16.3038 95.2486C5.4346 85.5235 0 72.08 0 54.9181C0 38.9003 5.4346 25.7428 16.3038 15.4457C27.173 5.14855 40.0444 0 54.9181 0Z" fill="white"/>
</svg>
