<svg width="18" height="15" viewBox="0 0 18 15" fill="none" xmlns="http://www.w3.org/2000/svg">
<path fill-rule="evenodd" clip-rule="evenodd" d="M11.3848 5.36825L10.0298 5.3982C6.72917 5.47114 3.72028 7.71525 2.27942 10.8185C4.41771 9.5998 7.11529 9.05469 10.156 9.40999C13.1966 9.7653 11.3848 9.55358 11.3848 9.55358V12.7497L16.4018 7.49966L11.3848 2.24958V5.36825ZM11.4252 0.257116L17.7562 6.88225C18.0813 7.22339 18.0813 7.77592 17.7562 8.11707L11.4252 14.7422C10.8992 15.2926 10.0001 14.9034 10.0001 14.1248V10.8295C6.45766 10.4155 3.54633 11.3367 1.55495 13.0522C0.948638 13.5746 0.427605 14.1705 0 14.8249C0 13.9562 0.105761 13.1041 0.304021 12.2833C1.41359 7.68922 5.42038 4.07116 10.0001 3.96995V0.874527C10.0001 0.0970079 10.8992 -0.292275 11.4252 0.257116Z" fill="#C89D66"/>
</svg>
