<svg width="20" height="17" viewBox="0 0 20 17" fill="none" xmlns="http://www.w3.org/2000/svg">
<path d="M16.1962 16.1374C16.1366 16.2862 16.0457 16.4205 15.9299 16.5313C15.8141 16.6422 15.6759 16.727 15.5246 16.7801C15.3733 16.8331 15.2124 16.8532 15.0527 16.8391C14.893 16.8249 14.7382 16.7767 14.5987 16.6978L10.2705 13.3347L7.49255 15.8975C7.42809 15.9451 7.35269 15.9757 7.27329 15.9866C7.19388 15.9974 7.11303 15.9881 7.03816 15.9595L7.57068 11.1948L7.58772 11.2083L7.59861 11.1143C7.59861 11.1143 15.3871 4.02328 15.7044 3.72116C16.0256 3.41983 15.9197 3.35446 15.9197 3.35446C15.9379 2.9869 15.3433 3.35446 15.3433 3.35446L5.02363 9.99349L0.72601 8.52986C0.72601 8.52986 0.0659384 8.2931 0.00375782 7.77253C-0.0616115 7.25595 0.747518 6.97535 0.747518 6.97535L17.8344 0.187279C17.8344 0.187279 19.2391 -0.438545 19.2391 0.597847L16.1962 16.1374Z" fill="white"/>
</svg>
